<svg width="63" height="75" viewBox="0 0 63 75" fill="none" xmlns="http://www.w3.org/2000/svg">
<path d="M11.588 29.896C12.396 29.896 13.051 29.241 13.051 28.433C13.051 27.625 12.396 26.97 11.588 26.97C10.78 26.97 10.125 27.625 10.125 28.433C10.125 29.241 10.78 29.896 11.588 29.896Z" fill="#5C8692"/>
<path d="M61.07 26.8991C60.1491 25.8409 58.7873 25.2352 57.3345 25.2352H45.5004V22.7299C45.5004 19.0608 42.5151 16.0756 38.8461 16.0756H37.6997V15.8891C37.6997 13.2667 35.6208 11.1228 33.0245 11.0144V8.51919C34.1116 8.26476 35.0556 7.89901 35.8493 7.41761C37.3238 6.52275 37.9628 5.44141 38.2389 4.69257C38.8548 3.01995 38.2071 1.10303 36.7644 0.329607C36.3538 0.111315 35.9187 0 35.4691 0C34.4904 0 33.5709 0.543563 33.0158 1.43264C32.7353 1.61623 31.6627 2.16991 28.929 2.16991H22.1185C18.6591 2.16991 16.5094 4.53499 16.5094 8.34427C16.5094 10.2106 17.8539 11.73 19.5077 11.73C20.9808 11.73 22.2096 10.5243 22.4597 8.94132H25.7312V11.0144C23.1348 11.1228 21.056 13.2667 21.056 15.8891V16.0756H19.9081C16.2391 16.0756 13.2538 19.0608 13.2538 22.7299V22.8282H8.96603C7.06356 22.8282 5.51527 24.3765 5.51527 26.279V32.8003C4.47585 33.6893 3.81519 35.0078 3.81519 36.4809V38.6306C1.84333 40.0386 0.500327 42.288 0.328295 44.8685C0.254567 46.0005 0.202524 47.2003 0.175056 48.432C0.162046 49.0551 0.655011 49.5712 1.27808 49.5857C1.89971 49.6001 2.41725 49.1057 2.43026 48.4826C2.45629 47.2842 2.50688 46.119 2.57917 45.0174C2.72951 42.7391 4.13468 40.8149 6.0863 39.9042C6.10076 39.8984 6.11377 39.8912 6.12678 39.8854C6.90743 39.5312 7.77193 39.3404 8.62919 39.3404H14.5448C15.4049 39.3404 16.2651 39.5312 17.0472 39.8854C17.0616 39.8912 17.0747 39.8984 17.0877 39.9042C19.061 40.8193 20.4502 42.8446 20.5948 45.0174C20.709 46.7305 20.7654 48.4913 20.7654 50.2478C20.7654 51.079 20.7423 51.9088 20.7249 52.7386C20.7235 52.7675 20.7235 52.7964 20.722 52.8268C20.7119 53.1203 19.8951 53.9298 19.7245 54.2334C19.4441 54.7322 19.2171 55.2569 19.0494 55.8034C18.6678 57.0437 18.5868 58.3521 18.5637 59.6416C18.5304 61.573 18.7227 63.513 19.1492 65.3981C19.1506 65.4068 19.1521 65.414 19.1549 65.4227C18.4422 67.383 16.6092 68.6797 14.5072 68.6797H8.66678C6.34363 68.6797 4.30816 67.023 3.82387 64.7404C3.05623 61.119 2.59651 57.1478 2.45629 52.9352C2.43605 52.3121 1.91128 51.8235 1.2911 51.8452C0.668022 51.8654 0.179393 52.3873 0.201078 53.0104C0.345643 57.3546 0.822706 61.4587 1.61637 65.2088C2.31895 68.528 5.28542 70.9379 8.66678 70.9379H14.5101C16.7075 70.9379 18.7025 69.9649 20.0368 68.3617C20.7495 70.2598 21.7094 72.0206 22.8963 73.5762C23.1102 73.8552 23.4413 74.02 23.7926 74.02H45.0855C45.4368 74.02 45.7693 73.8552 45.9818 73.5762C46.3259 73.1266 46.6497 72.6582 46.9547 72.1768H56.6564C57.2795 72.1768 57.7855 71.6722 57.7855 71.0477V61.732L60.4643 42.3806C60.5496 41.7633 60.1188 41.1937 59.5015 41.1084C58.8827 41.0231 58.3146 41.4539 58.2293 42.0712L56.0869 57.5512H50.1886C50.112 56.8096 49.9501 56.0781 49.6884 55.3798C48.8847 53.2374 47.2395 51.5474 45.1766 50.6656L45.1361 50.3692L42.3258 30.0665C42.3156 29.9943 42.3099 29.9205 42.307 29.8483C42.307 29.8439 42.307 29.841 42.307 29.8367C42.2867 29.1066 42.6785 28.4489 43.2481 28.0166C43.7063 27.6697 44.3077 27.4933 44.8788 27.4933H57.3359C58.1353 27.4933 58.877 27.8171 59.3699 28.3824C59.7892 28.8638 59.9742 29.4623 59.8904 30.0651L58.8538 37.555C58.7685 38.1723 59.1993 38.7419 59.8166 38.8272C60.4339 38.9125 61.0035 38.4817 61.0888 37.8644L62.1253 30.373C62.2988 29.1139 61.9244 27.8793 61.07 26.8991ZM22.1171 6.68322C21.5966 6.68322 20.9504 6.74249 20.576 7.1545C20.2825 7.47688 20.2479 7.92937 20.2479 8.34427C20.2479 9.00927 19.8575 9.47332 19.5062 9.47332C19.1549 9.47332 18.7646 9.00927 18.7646 8.34427C18.7646 4.93544 20.8651 4.42801 22.1171 4.42801H28.9275C29.9799 4.42801 31.0728 4.36151 32.1181 4.13599C33.0187 3.94083 34.0263 3.6517 34.6884 2.97514C34.9298 2.72793 35.0469 2.25954 35.4676 2.25954C35.5428 2.25954 35.6165 2.27978 35.6931 2.32026C36.0921 2.53422 36.3581 3.26138 36.1167 3.91481C35.923 4.44102 35.0831 5.92859 31.7364 6.47794C31.7277 6.47939 31.7205 6.47939 31.7118 6.48083C30.7924 6.63118 29.8585 6.68467 28.9275 6.68467H26.8588L22.1171 6.68322ZM30.7649 8.86615V11.0071H27.9878V8.93987C27.9907 8.98903 30.7649 8.88928 30.7649 8.86615ZM25.935 13.2638H26.8588H31.894H32.8177C34.2634 13.2638 35.4401 14.4406 35.4401 15.8862V16.0727H23.3126V15.8862C23.3126 14.4406 24.4894 13.2638 25.935 13.2638ZM7.77337 26.2833C7.77337 26.2818 7.77337 26.279 7.77337 26.2775C7.77337 25.6197 8.30826 25.0849 8.96603 25.0849H14.2094C14.2354 25.0849 14.26 25.0877 14.2846 25.0892C14.2903 25.0892 14.2947 25.0906 14.299 25.0906C15.6218 25.1875 15.402 26.7271 15.402 27.6523C15.402 28.7756 15.402 29.8988 15.402 31.0221C15.402 31.2549 15.402 31.4862 15.402 31.7189C15.1115 31.6654 14.8151 31.638 14.5188 31.638C14.5188 31.638 8.65811 31.638 8.65522 31.638C8.38199 31.638 8.0625 31.7175 7.77482 31.7088C7.68952 29.9119 7.77337 28.0846 7.77337 26.2833ZM17.1036 37.4842C17.1036 37.156 14.8628 37.0808 14.5448 37.0808H8.63208C7.76614 37.0808 6.89731 37.2182 6.07329 37.4842C6.07329 37.4842 6.07329 36.4794 6.07329 36.478C6.07329 35.0829 7.26161 33.8932 8.65811 33.8932H14.5216C15.3702 33.8932 16.1899 34.3326 16.6641 35.0352C17.1585 35.7682 17.1036 36.6413 17.1036 37.4842ZM48.6953 68.8518C48.7126 68.7954 48.7256 68.752 48.7358 68.7246C49.1275 67.6172 49.4774 66.4896 49.7332 65.3418C50.138 63.5289 50.3361 61.6626 50.3144 59.8049H55.5288V61.651V69.9158C55.5288 69.9158 48.1907 69.9158 48.1879 69.9158C48.3816 69.9172 48.5955 69.1814 48.6953 68.8518ZM47.4838 55.9595H42.1552C41.5321 55.9595 41.0261 56.464 41.0261 57.0886C41.0261 57.7131 41.5307 58.2176 42.1552 58.2176H47.9811C47.9855 58.2653 47.9883 58.3145 47.9927 58.3622C48.344 63.0374 47.2597 67.9121 44.5159 71.7619H24.3636C22.9801 69.8218 21.9783 67.5449 21.3986 65.0873C20.8709 62.848 20.7061 60.5104 20.8969 58.2176H37.6404C38.2635 58.2176 38.7695 57.7131 38.7695 57.0886C38.7695 56.464 38.2649 55.9595 37.6404 55.9595H21.3914C21.6834 55.267 22.1055 54.6324 22.6433 54.0831C23.7694 52.9323 25.3784 52.2471 27.0077 52.2471H41.8704C42.3865 52.2471 42.8953 52.3136 43.3854 52.4423C45.1925 52.9121 46.7436 54.2045 47.4838 55.9595ZM43.2423 25.5026C43.2423 25.4954 41.8964 26.2009 41.7677 26.3021C39.553 28.0672 40.124 30.6462 40.4609 33.0822L42.8086 50.0425C42.8014 50.041 42.7941 50.041 42.7855 50.041C42.6568 50.0266 42.5267 50.0165 42.3966 50.0078C42.3677 50.0063 42.3402 50.0034 42.3113 50.002C42.1653 49.9948 42.0178 49.989 41.8689 49.989H27.0077C26.2921 49.989 25.5779 50.0815 24.8855 50.2622C24.5486 50.3504 24.2162 50.4588 23.8938 50.586C23.7752 50.6338 23.022 50.8954 23.0206 50.9937C23.0235 50.7422 23.0235 50.4935 23.0235 50.2449C23.0235 48.4378 22.9642 46.6279 22.8471 44.8656C22.7618 43.5804 22.3686 42.3126 21.7195 41.2009C21.4246 40.6964 21.0762 40.2222 20.683 39.79C20.4792 39.5659 20.2638 39.3534 20.0368 39.1539C19.9515 39.0787 19.3602 38.6971 19.3602 38.6175V36.4765C19.3602 35.0844 18.7314 33.7038 17.6601 32.793V26.2761C17.6601 26.1951 17.6558 26.1156 17.65 26.0361C17.6486 26.0202 17.6471 26.0028 17.6457 25.9869C17.5358 24.6699 16.6843 23.5611 15.5105 23.0812V22.727C15.5105 20.3027 17.4838 18.3293 19.9081 18.3293H22.1836H36.5677H38.8432C41.2675 18.3293 43.2408 20.3027 43.2408 22.727C43.2423 22.7284 43.2423 25.5026 43.2423 25.5026Z" fill="#5C8692"/>
</svg>
