<svg width="49" height="72" viewBox="0 0 49 72" fill="none" xmlns="http://www.w3.org/2000/svg">
<path d="M30.8 43.6064C30.3978 43.155 29.706 43.117 29.2546 43.5192C28.595 44.1084 26.9413 44.7018 24.7335 44.7018C22.5242 44.7018 20.8705 44.107 20.2124 43.5192C19.761 43.117 19.0691 43.155 18.6669 43.6064C18.2647 44.0564 18.3027 44.7483 18.7541 45.1518C19.9733 46.2417 22.2092 46.8914 24.7335 46.8914C27.2591 46.8914 29.4936 46.2417 30.7128 45.1518C31.1642 44.7483 31.2036 44.0578 30.8 43.6064Z" fill="#5C8692"/>
<path d="M22.1447 33.9594C21.7369 33.5123 21.045 33.4813 20.5992 33.8891C20.2828 34.1774 19.4039 34.4882 18.2213 34.4882C17.0386 34.4882 16.1597 34.1774 15.8433 33.8891C15.3961 33.4813 14.7042 33.5137 14.2978 33.9594C13.89 34.4066 13.9223 35.0985 14.3681 35.5049C15.1725 36.239 16.6125 36.6763 18.2213 36.6763C19.83 36.6763 21.2714 36.239 22.0744 35.5049C22.5202 35.0985 22.5525 34.4052 22.1447 33.9594Z" fill="#5C8692"/>
<path d="M23.1971 28.8281C22.1719 28.1629 20.3129 27.7664 18.2218 27.7664C16.1307 27.7664 14.2702 28.1629 13.2465 28.8281C12.7402 29.1571 12.5954 29.835 12.9244 30.3412C13.134 30.6632 13.4855 30.839 13.8427 30.839C14.0466 30.839 14.2533 30.7814 14.4376 30.6618C14.9818 30.3089 16.3627 29.9531 18.2218 29.9531C20.0808 29.9531 21.4618 30.3089 22.006 30.6618C22.5137 30.9909 23.1915 30.8475 23.5191 30.3398C23.8482 29.835 23.7048 29.1571 23.1971 28.8281Z" fill="#5C8692"/>
<path d="M35.1701 33.9594C34.7623 33.5123 34.0704 33.4813 33.6246 33.8891C33.3082 34.1774 32.4293 34.4882 31.2466 34.4882C30.064 34.4882 29.1851 34.1774 28.8687 33.8891C28.4229 33.4813 27.7296 33.5137 27.3232 33.9594C26.9154 34.4066 26.9477 35.0985 27.3935 35.5049C28.1979 36.239 29.6379 36.6763 31.2466 36.6763C32.8554 36.6763 34.2954 36.239 35.0998 35.5049C35.547 35.0985 35.5779 34.4052 35.1701 33.9594Z" fill="#5C8692"/>
<path d="M36.2233 28.8281C35.1981 28.1629 33.339 27.7664 31.2466 27.7664C29.1555 27.7664 27.295 28.1629 26.2712 28.8281C25.7636 29.1571 25.6201 29.835 25.9492 30.3412C26.2783 30.8475 26.9561 30.9923 27.4637 30.6632C28.008 30.3103 29.3889 29.9545 31.248 29.9545C33.107 29.9545 34.488 30.3103 35.0322 30.6632C35.2164 30.7828 35.4231 30.8404 35.627 30.8404C35.9856 30.8404 36.3358 30.6646 36.5453 30.3426C36.8744 29.835 36.7295 29.1571 36.2233 28.8281Z" fill="#5C8692"/>
<path d="M45.9402 64.575C44.008 62.9325 41.3727 62.0283 38.5208 62.0283C34.7675 62.0283 32.1716 61.1916 31.0789 60.757V55.7958C36.7053 53.7553 41.0788 49.0838 42.7058 43.2745C46.2284 42.833 48.9664 39.8138 48.9664 36.18C48.9664 32.8205 46.5898 29.9334 43.3948 29.205V26.782C44.6591 22.3509 44.5803 17.9986 44.2864 15.1144C44.1191 13.4663 43.8659 12.1106 43.6831 11.2641C43.513 10.478 43.4033 10.0533 43.3217 9.80719C43.3048 9.7425 43.2837 9.67922 43.2542 9.61734C42.042 7.04812 39.8862 4.85859 37.1272 3.2175C37.0709 3.17672 37.0119 3.14297 36.95 3.11344C33.5595 1.14609 29.2831 0 24.7339 0C21.1522 0 17.6492 0.70875 14.6047 2.04891C14.052 2.29219 13.8003 2.93766 14.0436 3.49172C14.2869 4.04437 14.9323 4.29609 15.4864 4.05281C18.2553 2.83359 21.4531 2.18953 24.7339 2.18953C28.3634 2.18953 31.7863 2.97 34.6241 4.33687C33.2938 5.48156 31.7103 6.58406 29.8175 7.68234C29.2944 7.98609 29.1172 8.65547 29.4209 9.17859C29.6234 9.52875 29.9905 9.72422 30.3687 9.72422C30.5558 9.72422 30.7442 9.67641 30.9172 9.57656C33.2094 8.24625 35.0895 6.89906 36.642 5.47453C38.5405 6.71766 40.0522 8.26594 41.0141 10.0392C40.9761 10.0997 40.9367 10.1587 40.8973 10.2192C40.8706 10.2586 40.8439 10.2994 40.8172 10.3387C38.4209 13.8291 33.3359 17.1731 25.9798 20.0967C25.9363 20.1136 25.8913 20.1305 25.8477 20.1488C25.6873 20.212 25.527 20.2753 25.3653 20.3372C18.0486 23.1637 10.5856 24.8245 7.95594 25.3631C7.35828 22.9402 7.16984 20.5495 7.19094 18.4134C8.10078 18.2306 9.00641 17.9691 9.89094 17.7145C10.5842 17.5134 11.3014 17.3067 11.9933 17.1464C12.0045 17.1436 12.0158 17.1408 12.027 17.138C16.5256 15.9469 20.9525 14.3381 26.382 11.9208C26.9347 11.6747 27.1822 11.0278 26.9361 10.4766C26.69 9.92531 26.0431 9.67641 25.4919 9.9225C20.1805 12.2878 15.8591 13.86 11.4842 15.0188C10.7403 15.1917 9.99922 15.4055 9.28344 15.6122C8.59859 15.8105 7.93766 16.0003 7.29078 16.1522C7.52844 13.095 8.11063 10.8984 8.22734 10.478C8.98531 8.90719 10.1834 7.47984 11.7908 6.23109C12.2689 5.86125 12.3547 5.17359 11.9848 4.69547C11.6136 4.21875 10.9273 4.13156 10.4492 4.50141C8.54094 5.98359 7.115 7.70484 6.21078 9.62016C6.18828 9.66938 6.16859 9.71859 6.15313 9.77063C6.04906 10.1152 3.64016 18.2728 6.07016 26.7862V29.2092C2.87797 29.9334 0.5 32.8219 0.5 36.1814C0.5 39.8152 3.23937 42.8344 6.76062 43.2759C8.38766 49.0852 12.7625 53.7567 18.3875 55.7972V60.7584C17.292 61.1944 14.6975 62.0311 10.9456 62.0311C8.09375 62.0311 5.45984 62.9353 3.52625 64.5778C1.57578 66.2344 0.5 68.483 0.5 70.9059C0.5 71.5106 0.989375 72 1.59406 72H47.8737C48.4784 72 48.9678 71.5106 48.9678 70.9059C48.9678 68.483 47.892 66.2344 45.9402 64.575ZM43.2148 40.8361C43.333 39.9783 43.3948 39.112 43.3948 38.2472V31.4775C45.3636 32.1441 46.7783 34.0228 46.7783 36.1814C46.7783 38.4328 45.2637 40.3453 43.2008 40.9472C43.2064 40.9106 43.2106 40.8727 43.2148 40.8361ZM2.68813 36.1814C2.68813 34.0228 4.10281 32.1441 6.07156 31.4775V38.2472C6.07156 39.1134 6.13344 39.9783 6.25156 40.8361C6.25719 40.8727 6.26 40.9106 6.26562 40.9472C4.20266 40.3439 2.68813 38.4328 2.68813 36.1814ZM41.4219 13.1048C41.4472 13.0767 41.4725 13.0472 41.4978 13.0191C41.5667 12.9403 41.6342 12.8616 41.7003 12.7828C41.713 12.7673 41.727 12.7519 41.7397 12.7378C42.2361 15.5039 42.7423 20.3681 41.5105 25.3617C39.3322 24.9159 33.8323 23.7038 27.8642 21.6942C34.1178 19.1067 38.6558 16.2323 41.4219 13.1048ZM8.52406 41.1877C8.52266 41.1764 8.51984 41.1638 8.51703 41.1525C8.34406 40.1948 8.26109 39.2203 8.26109 38.2472V30.143V27.533C8.27094 27.5316 8.28219 27.5288 8.29344 27.5259C9.98797 27.1884 11.6727 26.7933 13.3489 26.3742C15.1152 25.9327 16.8716 25.4545 18.6167 24.9356C19.76 24.5953 20.8991 24.2381 22.0297 23.8598C22.0508 23.8528 22.0705 23.8458 22.0916 23.8388H27.3791C33.4808 25.8792 39.0847 27.1027 41.2081 27.5316V30.1416V38.2458C41.2081 39.2175 41.1223 40.1948 40.9508 41.1525C40.9494 41.1638 40.9466 41.175 40.9452 41.1862C39.8258 47.3794 35.2316 52.3786 29.262 54.0872C29.2522 54.09 29.2423 54.0928 29.2325 54.0956C27.7714 54.5062 26.2527 54.72 24.7339 54.72C23.2194 54.72 21.6894 54.5161 20.2339 54.0956C20.2269 54.0942 20.2213 54.0914 20.2142 54.09C14.2419 52.3828 9.64484 47.3822 8.52406 41.1877ZM2.79219 69.8105C3.05234 68.4591 3.79484 67.2202 4.94375 66.2428C6.48078 64.9364 8.61266 64.2178 10.9456 64.2178C16.5777 64.2178 19.8584 62.5092 19.9948 62.4361C20.352 62.2463 20.5756 61.875 20.5756 61.47C20.5756 61.47 20.5756 56.4427 20.5756 56.4441C20.5784 56.8617 24.5117 56.9095 24.7325 56.9095C26.1303 56.9095 27.5253 56.7548 28.8894 56.4441V61.4714C28.8894 61.8764 29.113 62.2477 29.4702 62.4375C29.6066 62.5106 32.8873 64.2192 38.5194 64.2192C40.8523 64.2192 42.9842 64.9378 44.5213 66.2442C45.6716 67.2216 46.4127 68.4605 46.6728 69.8119H2.79219V69.8105Z" fill="#5C8692"/>
</svg>
