<svg width="66" height="66" viewBox="0 0 66 66" fill="none" xmlns="http://www.w3.org/2000/svg">
<path d="M10.668 52.059C10.4721 52.5568 9.99669 52.8596 9.49282 52.8596C9.33802 52.8596 9.18007 52.8311 9.02685 52.7692C4.19187 50.8461 1.25866 48.3743 0.541545 45.6235C0.364636 44.9465 0.768999 44.2521 1.44504 44.0761C2.12109 43.9001 2.81135 44.3044 2.98668 44.983C3.48423 46.8919 5.96096 48.8214 9.96036 50.4132C10.608 50.6701 10.9255 51.4073 10.668 52.059ZM14.9628 38.7806C15.2013 38.9836 15.4919 39.0835 15.781 39.0835C16.138 39.0835 16.4934 38.9312 16.7429 38.6379C17.1962 38.1052 17.1315 37.3046 16.6008 36.8495C15.9737 36.3136 15.3608 35.746 14.778 35.161C9.22429 29.5865 6.31636 22.501 7.19774 16.8536C9.56706 16.481 12.1891 16.7822 14.8459 17.6732C14.958 17.7319 15.0812 17.7747 15.2092 17.7985C18.7458 19.0542 22.3282 21.342 25.4367 24.4622C26.2186 25.247 26.9641 26.081 27.6512 26.9372C28.0888 27.4826 28.8849 27.5682 29.4282 27.129C29.9716 26.6898 30.0569 25.8907 29.6194 25.3453C28.8754 24.4178 28.0698 23.5173 27.2232 22.6675C24.0294 19.4617 20.3459 17.0597 16.6418 15.6423C16.5518 13.3481 16.9388 11.2537 17.7586 9.6032C19.8451 10.0582 22.0044 11.3329 23.9456 13.2625C23.6755 14.3453 23.4591 15.4647 23.3028 16.6126C23.208 17.307 23.6913 17.9459 24.3832 18.0411C25.075 18.1362 25.7116 17.6511 25.8063 16.9566C26.6561 10.7416 29.3445 5.52378 33.0628 2.79836C36.781 5.52378 39.4694 10.74 40.3192 16.9534C40.414 17.6479 41.0505 18.133 41.7424 18.0379C42.4342 17.9428 42.9175 17.3022 42.8228 16.6094C42.6664 15.4615 42.45 14.3438 42.1799 13.2625C44.1211 11.3329 46.282 10.0582 48.367 9.6032C49.1852 11.2537 49.5737 13.3481 49.4837 15.6423C45.7797 17.0613 42.0962 19.4632 38.9023 22.6675C38.0557 23.5173 37.2501 24.4178 36.5062 25.3453C36.0686 25.8907 36.1539 26.6898 36.6973 27.129C37.2407 27.5682 38.0367 27.4826 38.4743 26.9372C39.1614 26.081 39.9069 25.2486 40.6888 24.4622C43.7973 21.342 47.3782 19.0526 50.9148 17.7985C51.0443 17.7747 51.1675 17.7319 51.2796 17.6732C53.9364 16.7838 56.5585 16.481 58.9278 16.8536C59.8092 22.5026 56.9012 29.5881 51.3476 35.161C50.7647 35.746 50.1518 36.3136 49.5248 36.8495C48.994 37.303 48.9293 38.1036 49.381 38.6379C49.8328 39.1707 50.6304 39.2357 51.1628 38.7822C51.8404 38.2035 52.5038 37.5884 53.134 36.9557C59.5533 30.514 62.7329 22.0872 61.2387 15.4901C61.1312 15.0144 60.7616 14.6434 60.2862 14.534C57.7321 13.9506 54.9031 14.0758 52.0204 14.8257C51.9936 12.0321 51.3302 9.48905 50.1013 7.53099C49.8423 7.11877 49.37 6.89204 48.8866 6.94754C46.3483 7.24243 43.7231 8.51081 41.3633 10.564C39.7316 5.98674 37.0574 2.29418 33.7341 0.195013C33.3234 -0.0650043 32.799 -0.0650043 32.3883 0.195013C29.0649 2.29418 26.3908 5.98674 24.7591 10.564C22.3993 8.51081 19.7772 7.24243 17.2357 6.94754C16.7524 6.89204 16.2817 7.11877 16.0226 7.53099C14.7953 9.48905 14.1335 12.0321 14.1067 14.8257C11.2256 14.0758 8.39503 13.9506 5.84091 14.534C5.36705 14.6418 4.99744 15.0144 4.88845 15.4901C3.39262 22.0872 6.57382 30.5124 12.9931 36.9557C13.6217 37.5868 14.2852 38.2003 14.9628 38.7806ZM14.3641 48.6993C14.5947 48.0382 14.2472 47.3152 13.5886 47.0837C9.77555 45.7456 7.49943 44.0539 7.49943 42.5604C7.49943 41.5948 8.49139 40.504 10.2921 39.4877C10.9002 39.1453 11.1166 38.3716 10.7738 37.7612C10.4326 37.1508 9.66183 36.9336 9.0537 37.2776C6.34479 38.806 4.97216 40.5833 4.97216 42.562C4.97216 45.3017 7.66371 47.6926 12.7546 49.481C12.892 49.5301 13.0326 49.5523 13.1716 49.5523C13.6944 49.5507 14.1825 49.2225 14.3641 48.6993ZM52.2874 47.1725C51.6271 47.3977 51.2733 48.1175 51.4976 48.7818C51.6761 49.3097 52.1673 49.6427 52.6933 49.6427C52.8276 49.6427 52.965 49.6205 53.0993 49.5745C58.3702 47.7782 61.1581 45.3524 61.1581 42.5604C61.1581 40.6531 59.8787 38.9297 57.3561 37.4377C56.7543 37.0826 55.9804 37.2824 55.6265 37.8864C55.2727 38.4905 55.4717 39.2674 56.0735 39.6225C57.7226 40.5976 58.6308 41.6408 58.6308 42.5588C58.6292 44.0713 56.1999 45.8391 52.2874 47.1725ZM45.5964 56.4428C45.5964 57.727 44.5555 58.7734 43.2745 58.7734C42.5764 58.7734 42.0109 59.341 42.0109 60.0418C42.0109 60.7426 42.5764 61.3102 43.2745 61.3102C45.9487 61.3102 48.1237 59.127 48.1237 56.4428C48.1237 55.742 47.5582 55.1744 46.8601 55.1744C46.1619 55.1744 45.5964 55.742 45.5964 56.4428ZM64.5541 44.0761C63.8797 43.9001 63.1878 44.3044 63.0125 44.983C62.5149 46.8935 60.0398 48.8214 56.0404 50.4132C55.3912 50.6717 55.0737 51.4089 55.3312 52.0605C55.527 52.5584 56.0041 52.8612 56.5063 52.8612C56.6611 52.8612 56.8191 52.8327 56.9723 52.7708C61.8073 50.8461 64.7421 48.3743 65.4592 45.6235C65.6345 44.9465 65.2286 44.2537 64.5541 44.0761ZM42.0993 44.6263C42.0993 45.3175 41.5402 45.8788 40.8515 45.8788C40.1533 45.8788 39.5879 46.4464 39.5879 47.1472C39.5879 47.8479 40.1533 48.4155 40.8515 48.4155C42.9333 48.4155 44.6266 46.7159 44.6266 44.6263C44.6266 43.9255 44.0611 43.3579 43.363 43.3579C42.6648 43.3579 42.0993 43.9271 42.0993 44.6263ZM38.4885 36.5261H38.8186C39.5168 36.5261 40.0823 35.9585 40.0823 35.2577C40.0823 34.5569 39.5168 33.9893 38.8186 33.9893H38.4885C37.7903 33.9893 37.2249 34.5569 37.2249 35.2577C37.2249 35.9585 37.7919 36.5261 38.4885 36.5261ZM51.5418 51.068C52.6996 52.6805 53.3125 54.5814 53.3125 56.5649C53.3125 61.7668 49.0967 66 43.9126 66H22.2176C17.0351 66 12.8178 61.7684 12.8178 56.5664C12.8178 53.1149 14.7227 49.9566 17.6796 48.3109C17.2657 47.3723 17.0367 46.3322 17.0367 45.2414C17.0367 41.923 19.1612 39.093 22.1165 38.0497C21.4642 37.1016 21.0803 35.9521 21.0803 34.7139C21.0803 31.4716 23.7087 28.8334 26.9389 28.8334H39.1914C42.4216 28.8334 45.0499 31.4716 45.0499 34.7139C45.0499 37.9562 42.4216 40.5944 39.1914 40.5944H26.9389C26.1523 40.5944 25.402 40.4374 24.7149 40.1552C24.6864 40.1568 24.6564 40.1584 24.628 40.1584C21.8354 40.1584 19.564 42.4383 19.564 45.2414C19.564 46.2894 19.8815 47.2661 20.4264 48.0762C20.4691 48.1286 20.5086 48.1841 20.5433 48.2427C21.4658 49.5032 22.9537 50.3244 24.628 50.3244H41.5023C44.2949 50.3244 46.5663 48.0445 46.5663 45.2414C46.5663 43.7321 45.8966 42.3067 44.7277 41.3317C44.1906 40.8845 44.118 40.0839 44.5634 39.5448C45.0089 39.0058 45.8065 38.9328 46.3436 39.3799C48.0905 40.8386 49.0936 42.9742 49.0936 45.2398C49.0936 49.4413 45.6881 52.8596 41.5023 52.8596H24.628C22.4403 52.8596 20.4659 51.9258 19.0791 50.4338C16.8156 51.6087 15.345 53.9742 15.345 56.5649C15.345 60.3684 18.4283 63.4632 22.2176 63.4632H43.9126C47.702 63.4632 50.7852 60.3684 50.7852 56.5664C50.7852 55.1189 50.3382 53.7316 49.4916 52.5536C49.0841 51.986 49.212 51.1933 49.7775 50.7826C50.343 50.372 51.1327 50.5004 51.5418 51.068ZM23.6076 34.7139C23.6076 36.5578 25.1019 38.0577 26.9389 38.0577H39.1914C41.0284 38.0577 42.5227 36.5578 42.5227 34.7139C42.5227 32.87 41.0284 31.3701 39.1914 31.3701H26.9389C25.1019 31.3701 23.6076 32.87 23.6076 34.7139Z" fill="#5C8692"/>
</svg>
